<?xml version="1.0" encoding="UTF-8" standalone="no"?>
<!DOCTYPE svg PUBLIC "-//W3C//DTD SVG 1.1//EN" "http://www.w3.org/Graphics/SVG/1.1/DTD/svg11.dtd">
<svg version="1.1" xmlns="http://www.w3.org/2000/svg" xmlns:xlink="http://www.w3.org/1999/xlink" preserveAspectRatio="xMidYMid meet" viewBox="-0.9999999999999858 422.69000000000005 644 220.31000000000006" width="221.9" height="75"><defs><path d="M596.37 489.39C611.12 489.39 619.31 489.39 620.95 489.39C610.32 518.39 599.81 547.15 589.24 575.97C578.16 575.97 489.53 575.97 478.45 575.97C476.06 575.99 473.7 575.37 471.63 574.19C469.22 573.13 468.12 570.32 469.18 567.91C469.21 567.83 469.25 567.75 469.29 567.67C471.61 561.28 473.92 554.9 476.24 548.53C480.49 536.92 482.86 530.47 483.33 529.18C485.66 523.39 491.04 519.41 497.25 518.88C503.14 518.88 532.56 518.88 585.52 518.88L596.37 489.39ZM497.74 556.95C541.99 556.95 566.57 556.95 571.48 556.95C573.76 550.81 576.03 544.48 578.34 538.12C573.42 538.12 548.84 538.12 504.6 538.12L497.74 556.95Z" id="b2o3flbOCR"></path><path d="M178.82 489.48C177.96 493.01 176.33 496.21 175.32 499.74C182.67 499.74 241.52 499.74 248.87 499.74C250.1 496.39 251.39 492.95 252.68 489.51C255.14 489.51 274.8 489.51 277.26 489.51C276.95 490.49 276.74 491.32 276.46 492.12C273.42 500.46 270.93 507.11 270.32 508.77C267.88 514.63 262.3 518.56 255.97 518.88C247.19 518.88 176.94 518.88 168.16 518.88C163.55 531.51 158.94 544.08 154.27 556.89C164.1 556.89 242.76 556.89 252.59 556.89C251.54 559.69 250.5 562.24 249.7 564.88C248.71 567.86 246.86 570.48 244.39 572.41C241.64 574.8 238.11 576.1 234.46 576.06C224.49 576.06 144.76 576.06 134.79 576.06C132.8 575.95 130.85 575.47 129.04 574.65C126.35 573.91 124.76 571.11 125.5 568.41C125.61 568.02 125.77 567.63 125.97 567.27C126.83 564.93 133.71 546.2 134.58 543.86C144.13 517.78 151.77 496.85 153.69 491.63C153.85 490.89 154.1 490.17 154.42 489.48C159.3 489.48 176.38 489.48 178.82 489.48Z" id="aKtpaUT5i"></path><path d="M303.69 519.04C301.03 519.04 298.42 518.31 296.16 516.92C294.01 515.91 293.02 513.4 293.91 511.2C296.46 503.98 299.11 496.79 301.75 489.51C303.39 489.51 311.58 489.51 326.33 489.51L322.61 499.86C373.9 499.86 402.39 499.86 408.09 499.86C410.41 499.88 412.71 500.42 414.79 501.46C417.49 502.26 419.03 505.1 418.23 507.8C418.13 508.12 418.01 508.42 417.86 508.71C414.63 517.59 411.38 526.41 408.15 535.26C404.49 545.24 400.68 555.17 397.24 565.22C394.61 571.71 388.4 576.06 381.39 576.31C371.52 576.31 292.54 576.31 282.67 576.31C279.93 576.32 277.25 575.51 274.99 573.97C272.98 572.89 272.12 570.46 272.99 568.35C274.22 564.63 275.63 561.01 277.02 557.2C286.85 557.2 365.5 557.2 375.34 557.2C380.04 544.48 384.65 531.91 389.38 519.04C372.24 519.04 312.25 519.04 303.69 519.04Z" id="biJNNiUgW"></path><path d="M90.76 600.49C85.91 613.79 81.14 626.82 76.35 639.88C71.26 639.88 45.81 639.88 0 639.88L14.41 600.49C55.13 600.49 80.58 600.49 90.76 600.49Z" id="aqmo71RD9"></path><path d="M304.94 480.72C305.99 477.1 307.35 473.57 309 470.18C311.71 465.01 317.08 461.79 322.92 461.83C332.94 461.83 413.07 461.83 423.08 461.83C425.49 461.86 427.84 462.58 429.84 463.92C432.12 465.01 433.08 467.75 431.98 470.03C431.97 470.04 431.97 470.05 431.96 470.06C430.73 473.5 429.38 477.1 428.06 480.72C403.44 480.72 317.26 480.72 304.94 480.72Z" id="i1AfgFRS4"></path><path d="M501.03 480.88C503.09 476.33 503.58 471.66 506.59 468.09C509.79 464 514.74 461.67 519.93 461.8C529.8 461.8 608.75 461.8 618.62 461.8C621.27 461.79 623.87 462.55 626.11 463.98C628.05 464.98 628.99 467.24 628.32 469.32C627.06 473.19 625.59 476.97 624.18 480.88C599.55 480.88 513.35 480.88 501.03 480.88Z" id="c8bEcdhBYb"></path><path d="M157.53 480.75C158.54 477.17 159.87 473.69 161.49 470.34C164.03 465.26 169.17 461.99 174.86 461.86C184.85 461.86 264.78 461.86 274.77 461.86C277.34 461.82 279.87 462.49 282.09 463.79C284.49 464.82 285.6 467.6 284.58 470C284.54 470.1 284.5 470.19 284.45 470.28C283.22 473.75 281.9 477.25 280.64 480.75C256.02 480.75 169.84 480.75 157.53 480.75Z" id="b8iRQEtTr"></path><path d="M11.64 480.08C15.61 469.26 17.81 463.24 18.25 462.04C19.02 462.04 19.57 461.89 20.09 461.89C31.03 461.89 118.48 461.89 129.41 461.89C131.9 461.92 134.33 462.68 136.39 464.07C138.49 465.19 139.38 467.72 138.45 469.91C137.31 473.29 135.99 476.64 134.73 480.08C118.32 480.08 77.29 480.08 11.64 480.08Z" id="a2Z5NrSKYn"></path><path d="M24.58 576.06C35.21 546.97 45.75 518.21 56.26 489.51C57.9 489.51 66.09 489.51 80.84 489.51L49.16 576.06C36.05 576.06 27.86 576.06 24.58 576.06Z" id="h8AvCxZeG"></path><path d="M473.75 489.51C473.19 491.11 472.7 492.58 472.18 493.93C459.03 529.94 448.45 558.72 445.82 565.92C443.49 571.79 437.98 575.79 431.69 576.18C430.41 576.18 420.24 576.18 418.96 576.18C418.48 576.14 417.99 576.04 417.52 575.91C428.13 546.99 438.68 518.19 449.17 489.51C463.92 489.51 472.11 489.51 473.75 489.51Z" id="a3mbKOLG6"></path><path d="M579.78 603.07C575.97 613.55 572.16 623.96 568.29 634.53C572.66 634.53 607.64 634.53 612.01 634.53C613.88 629.46 615.76 624.33 617.76 618.89C615.94 618.89 606.84 618.89 590.47 618.89L592.35 613.67C617.53 613.67 631.52 613.67 634.32 613.67C631.24 621.81 628.45 629.71 625.56 637.54C624.12 638.91 622.23 639.69 620.24 639.75C614.22 639.75 565.99 639.75 559.96 639.75C558.52 639.75 557.09 639.66 555.66 639.48C554.39 639.49 553.19 638.91 552.4 637.91C552.56 637.45 552.68 636.93 552.86 636.41C557.04 625.01 561.31 613.64 565.34 602.18C566.06 599.67 568.29 597.9 570.9 597.75C571.84 597.6 572.8 597.51 573.76 597.51C578.17 597.51 600.25 597.51 640 597.51C638.88 600.6 638.25 602.33 638.13 602.67C633.24 603.01 628.36 602.67 623.5 602.67C620.59 602.67 606.01 602.67 579.78 602.67C579.78 602.88 579.78 603.02 579.78 603.07Z" id="a3btHoU0Kp"></path><path d="M464.19 639.82C469.35 625.65 474.42 611.79 479.55 597.85C480.2 597.85 480.81 597.69 481.43 597.69C482.49 597.69 490.94 597.69 492 597.69C493.36 597.63 494.7 598.02 495.81 598.8C500.54 601.87 505.28 604.94 510.03 608.02L511.88 609.24L528.47 601.84C533.35 599.7 536.07 598.51 536.61 598.28C537.24 597.93 537.93 597.71 538.64 597.63C539.57 597.63 544.24 597.63 552.65 597.63L537.29 639.69L522.66 639.69C530.04 619.41 534.13 608.15 534.95 605.9C530.34 607.92 526.19 609.58 522.2 611.52C519.22 613.06 515.87 613.77 512.52 613.58C509.45 613.39 506.38 613.58 502.94 613.58C502.15 613.07 498.22 610.52 491.14 605.93L478.66 639.91C470.95 639.86 466.12 639.83 464.19 639.82Z" id="affjYqwWO"></path><path d="M349.53 634.56C357.56 612.62 362.03 600.44 362.92 598C368.12 596.92 374.84 597.66 376.96 599.6C376.53 600.83 376.1 602.09 375.64 603.35C371.71 614.07 367.69 624.85 363.91 635.54C363.2 637.81 361.2 639.42 358.84 639.63C357.5 639.85 356.14 639.94 354.78 639.91C349.02 639.91 302.9 639.91 297.14 639.91C295.86 639.91 294.57 639.82 293.3 639.63C291.98 639.61 290.73 639.03 289.86 638.03C294.47 625.44 299.08 612.72 303.75 600.09C304.95 598.83 306.58 598.06 308.32 597.94C309.41 597.94 318.09 597.94 319.17 597.94C314.81 610.1 310.32 622.15 305.81 634.56C311.63 634.56 326.21 634.56 349.53 634.56Z" id="a63OdRPdhV"></path><path d="M477 480.75C462.26 480.75 454.06 480.75 452.42 480.75C452.73 479.86 452.95 479.12 453.19 478.39C458.63 463.55 463.95 448.65 469.57 433.87C471.48 428.22 476.61 424.27 482.57 423.88C487.27 423.45 492 423.88 496.73 423.88C497.08 423.9 497.42 423.98 497.74 424.1C490.8 443.04 483.89 461.93 477 480.75Z" id="l4cc3qWoyi"></path><path d="M401.02 613.52L459.4 613.52L457.46 618.77C422.44 618.77 402.98 618.77 399.09 618.77C396.51 625.81 393.92 632.75 391.34 639.78C389.88 639.78 378.15 639.78 376.69 639.78C381.85 625.71 386.95 611.79 392.05 597.81C398.59 597.81 450.92 597.81 457.46 597.81C459.14 597.87 460.8 598.07 462.44 598.43C463.19 598.7 463.9 599.06 464.56 599.5C464.47 599.75 464.03 600.95 463.24 603.13L404.8 603.13L401.02 613.52Z" id="glIVagO2c"></path><path d="M90.02 639.88C94.88 626.67 99.64 613.64 104.43 600.52C106.56 600.52 123.54 600.52 125.66 600.52C120.93 613.73 116.08 626.79 111.29 639.88C107.03 639.88 92.15 639.88 90.02 639.88Z" id="a1fQtMOBC"></path><path d="M156.7 600.52C151.84 613.76 147.08 626.79 142.32 639.85C140.58 639.85 126.72 639.85 124.99 639.85C129.84 626.57 134.61 613.58 139.37 600.52C142.83 600.52 154.96 600.52 156.7 600.52Z" id="c1VMmjQsPV"></path><path d="M169.39 639.88L155.96 639.88L170.4 600.46L183.8 600.46L169.39 639.88Z" id="k4y0mNW2zv"></path><path d="M208.93 600.46C204.17 613.73 199.31 626.82 194.52 639.88C193.37 639.88 184.18 639.88 183.03 639.88C187.88 626.67 192.65 613.61 197.47 600.46C199.76 600.46 207.78 600.46 208.93 600.46Z" id="d1xHO288lf"></path><path d="M208.13 639.88L222.54 600.52C228.2 600.52 231.34 600.52 231.97 600.52C227.36 613.7 222.39 626.73 217.59 639.88C216.33 639.88 213.18 639.88 208.13 639.88Z" id="a21neFo1l"></path><path d="M238.76 639.85L231.27 639.85L245.8 600.49L253.17 600.49L238.76 639.85Z" id="apkUmng1Q"></path><path d="M266.82 600.46C270.15 600.46 272.01 600.46 272.38 600.46C267.52 613.73 262.73 626.85 257.9 640C257.48 640 254.09 640 253.66 640C253.25 639.96 252.84 639.89 252.44 639.78C254.35 634.54 259.15 621.43 266.82 600.46Z" id="a16u1mjt3g"></path><path d="M286.02 600.46C288.45 600.46 289.8 600.46 290.07 600.46C285.22 613.7 280.46 626.79 275.66 639.91C275.39 639.91 274.03 639.91 271.58 639.91L286.02 600.46Z" id="f1LkWhhXPg"></path></defs><g><g><use xlink:href="#b2o3flbOCR" opacity="1" fill="#ffffff" fill-opacity="1"></use><g><use xlink:href="#b2o3flbOCR" opacity="1" fill-opacity="0" stroke="#000000" stroke-width="1" stroke-opacity="0"></use></g></g><g><use xlink:href="#aKtpaUT5i" opacity="1" fill="#ffffff" fill-opacity="1"></use><g><use xlink:href="#aKtpaUT5i" opacity="1" fill-opacity="0" stroke="#000000" stroke-width="1" stroke-opacity="0"></use></g></g><g><use xlink:href="#biJNNiUgW" opacity="1" fill="#ffffff" fill-opacity="1"></use><g><use xlink:href="#biJNNiUgW" opacity="1" fill-opacity="0" stroke="#000000" stroke-width="1" stroke-opacity="0"></use></g></g><g><use xlink:href="#aqmo71RD9" opacity="1" fill="#ffffff" fill-opacity="1"></use><g><use xlink:href="#aqmo71RD9" opacity="1" fill-opacity="0" stroke="#000000" stroke-width="1" stroke-opacity="0"></use></g></g><g><use xlink:href="#i1AfgFRS4" opacity="1" fill="#ffffff" fill-opacity="1"></use><g><use xlink:href="#i1AfgFRS4" opacity="1" fill-opacity="0" stroke="#000000" stroke-width="1" stroke-opacity="0"></use></g></g><g><use xlink:href="#c8bEcdhBYb" opacity="1" fill="#ffffff" fill-opacity="1"></use><g><use xlink:href="#c8bEcdhBYb" opacity="1" fill-opacity="0" stroke="#000000" stroke-width="1" stroke-opacity="0"></use></g></g><g><use xlink:href="#b8iRQEtTr" opacity="1" fill="#ffffff" fill-opacity="1"></use><g><use xlink:href="#b8iRQEtTr" opacity="1" fill-opacity="0" stroke="#000000" stroke-width="1" stroke-opacity="0"></use></g></g><g><use xlink:href="#a2Z5NrSKYn" opacity="1" fill="#ffffff" fill-opacity="1"></use><g><use xlink:href="#a2Z5NrSKYn" opacity="1" fill-opacity="0" stroke="#000000" stroke-width="1" stroke-opacity="0"></use></g></g><g><use xlink:href="#h8AvCxZeG" opacity="1" fill="#ffffff" fill-opacity="1"></use><g><use xlink:href="#h8AvCxZeG" opacity="1" fill-opacity="0" stroke="#000000" stroke-width="1" stroke-opacity="0"></use></g></g><g><use xlink:href="#a3mbKOLG6" opacity="1" fill="#ffffff" fill-opacity="1"></use><g><use xlink:href="#a3mbKOLG6" opacity="1" fill-opacity="0" stroke="#000000" stroke-width="1" stroke-opacity="0"></use></g></g><g><use xlink:href="#a3btHoU0Kp" opacity="1" fill="#ffffff" fill-opacity="1"></use><g><use xlink:href="#a3btHoU0Kp" opacity="1" fill-opacity="0" stroke="#000000" stroke-width="1" stroke-opacity="0"></use></g></g><g><use xlink:href="#affjYqwWO" opacity="1" fill="#ffffff" fill-opacity="1"></use><g><use xlink:href="#affjYqwWO" opacity="1" fill-opacity="0" stroke="#000000" stroke-width="1" stroke-opacity="0"></use></g></g><g><use xlink:href="#a63OdRPdhV" opacity="1" fill="#ffffff" fill-opacity="1"></use><g><use xlink:href="#a63OdRPdhV" opacity="1" fill-opacity="0" stroke="#000000" stroke-width="1" stroke-opacity="0"></use></g></g><g><use xlink:href="#l4cc3qWoyi" opacity="1" fill="#ffffff" fill-opacity="1"></use><g><use xlink:href="#l4cc3qWoyi" opacity="1" fill-opacity="0" stroke="#000000" stroke-width="1" stroke-opacity="0"></use></g></g><g><use xlink:href="#glIVagO2c" opacity="1" fill="#ffffff" fill-opacity="1"></use><g><use xlink:href="#glIVagO2c" opacity="1" fill-opacity="0" stroke="#000000" stroke-width="1" stroke-opacity="0"></use></g></g><g><use xlink:href="#a1fQtMOBC" opacity="1" fill="#ffffff" fill-opacity="1"></use><g><use xlink:href="#a1fQtMOBC" opacity="1" fill-opacity="0" stroke="#000000" stroke-width="1" stroke-opacity="0"></use></g></g><g><use xlink:href="#c1VMmjQsPV" opacity="1" fill="#ffffff" fill-opacity="1"></use><g><use xlink:href="#c1VMmjQsPV" opacity="1" fill-opacity="0" stroke="#000000" stroke-width="1" stroke-opacity="0"></use></g></g><g><use xlink:href="#k4y0mNW2zv" opacity="1" fill="#ffffff" fill-opacity="1"></use><g><use xlink:href="#k4y0mNW2zv" opacity="1" fill-opacity="0" stroke="#000000" stroke-width="1" stroke-opacity="0"></use></g></g><g><use xlink:href="#d1xHO288lf" opacity="1" fill="#ffffff" fill-opacity="1"></use><g><use xlink:href="#d1xHO288lf" opacity="1" fill-opacity="0" stroke="#000000" stroke-width="1" stroke-opacity="0"></use></g></g><g><use xlink:href="#a21neFo1l" opacity="1" fill="#ffffff" fill-opacity="1"></use><g><use xlink:href="#a21neFo1l" opacity="1" fill-opacity="0" stroke="#000000" stroke-width="1" stroke-opacity="0"></use></g></g><g><use xlink:href="#apkUmng1Q" opacity="1" fill="#ffffff" fill-opacity="1"></use><g><use xlink:href="#apkUmng1Q" opacity="1" fill-opacity="0" stroke="#000000" stroke-width="1" stroke-opacity="0"></use></g></g><g><use xlink:href="#a16u1mjt3g" opacity="1" fill="#ffffff" fill-opacity="1"></use><g><use xlink:href="#a16u1mjt3g" opacity="1" fill-opacity="0" stroke="#000000" stroke-width="1" stroke-opacity="0"></use></g></g><g><use xlink:href="#f1LkWhhXPg" opacity="1" fill="#ffffff" fill-opacity="1"></use><g><use xlink:href="#f1LkWhhXPg" opacity="1" fill-opacity="0" stroke="#000000" stroke-width="1" stroke-opacity="0"></use></g></g></g></svg>