<?xml version="1.0" encoding="UTF-8" standalone="no"?>
<!DOCTYPE svg PUBLIC "-//W3C//DTD SVG 1.1//EN" "http://www.w3.org/Graphics/SVG/1.1/DTD/svg11.dtd">
<svg version="1.1" xmlns="http://www.w3.org/2000/svg" xmlns:xlink="http://www.w3.org/1999/xlink" preserveAspectRatio="xMidYMid meet" viewBox="-1 -0.9999999999999969 644 220.31" width="221.9" height="75"><defs><path d="M596.37 65.7C611.12 65.7 619.31 65.7 620.95 65.7C610.32 94.7 599.81 123.46 589.24 152.28C588.35 152.28 587.64 152.28 586.94 152.28C576.09 152.28 489.3 152.28 478.45 152.28C476.06 152.3 473.7 151.68 471.63 150.5C469.22 149.44 468.12 146.63 469.18 144.22C469.21 144.14 469.25 144.06 469.29 143.98C471.61 137.59 473.92 131.21 476.24 124.84C480.49 113.23 482.86 106.78 483.33 105.49C485.66 99.7 491.04 95.72 497.25 95.19C503.14 95.19 532.56 95.19 585.52 95.19L596.37 65.7ZM497.74 133.26C541.99 133.26 566.57 133.26 571.48 133.26C573.76 127.12 576.03 120.79 578.34 114.43C573.42 114.43 548.84 114.43 504.6 114.43L497.74 133.26Z" id="b2bVDRyOt"></path><path d="M178.82 65.79C177.96 69.32 176.33 72.52 175.32 76.05C182.67 76.05 241.52 76.05 248.87 76.05C250.1 72.7 251.39 69.26 252.68 65.82C255.14 65.82 274.8 65.82 277.26 65.82C276.95 66.8 276.74 67.63 276.46 68.43C274.43 73.99 272.38 79.55 270.32 85.08C267.88 90.94 262.3 94.87 255.97 95.19C252.9 95.19 249.82 95.19 246.75 95.19C238.89 95.19 176.02 95.19 168.16 95.19C163.55 107.82 158.94 120.39 154.27 133.2C164.1 133.2 242.76 133.2 252.59 133.2C251.54 136 250.5 138.55 249.7 141.19C248.71 144.17 246.86 146.79 244.39 148.72C241.64 151.11 238.11 152.41 234.46 152.37C184.63 152.37 144.76 152.37 134.79 152.37C132.8 152.26 130.85 151.78 129.04 150.96C126.35 150.22 124.76 147.42 125.5 144.72C125.61 144.33 125.77 143.94 125.97 143.58C126.83 141.24 133.71 122.51 134.58 120.17C144.13 94.09 151.77 73.16 153.69 67.94C153.81 67.23 154.12 66.53 154.42 65.79C159.3 65.79 176.38 65.79 178.82 65.79Z" id="aTDrAaDph"></path><path d="M386.3 95.35C345.01 95.35 311.95 95.35 303.69 95.35C301.03 95.35 298.42 94.62 296.16 93.23C294.01 92.22 293.02 89.71 293.91 87.51C296.46 80.29 299.11 73.1 301.75 65.82C303.39 65.82 311.58 65.82 326.33 65.82L322.61 76.17C373.9 76.17 402.39 76.17 408.09 76.17C410.41 76.19 412.71 76.73 414.79 77.77C417.49 78.57 419.03 81.41 418.23 84.11C418.13 84.43 418.01 84.73 417.86 85.02C414.63 93.9 411.38 102.72 408.15 111.57C404.49 121.55 400.68 131.48 397.24 141.53C394.61 148.02 388.4 152.37 381.39 152.62C348.48 152.62 315.58 152.62 282.67 152.62C279.93 152.63 277.25 151.82 274.99 150.28C272.98 149.2 272.12 146.77 272.99 144.66C274.22 140.94 275.63 137.32 277.02 133.51C286.85 133.51 365.5 133.51 375.34 133.51C380.04 120.79 384.65 108.22 389.38 95.35C388.76 95.35 386.61 95.35 386.3 95.35Z" id="e1eXcNQjz4"></path><path d="M90.76 176.8C85.91 190.1 81.14 203.13 76.35 216.19C71.26 216.19 45.81 216.19 0 216.19L14.41 176.8C55.13 176.8 80.58 176.8 90.76 176.8Z" id="eeCpw9WvG"></path><path d="M304.94 57.03C305.99 53.41 307.35 49.88 309 46.49C311.71 41.32 317.08 38.1 322.92 38.14C332.94 38.14 413.07 38.14 423.08 38.14C425.49 38.17 427.84 38.89 429.84 40.23C432.12 41.32 433.08 44.06 431.98 46.34C431.97 46.35 431.97 46.36 431.96 46.37C430.73 49.81 429.38 53.41 428.06 57.03C403.44 57.03 317.26 57.03 304.94 57.03Z" id="acuw8gU0h"></path><path d="M501.03 57.19C503.09 52.64 503.58 47.97 506.59 44.4C509.79 40.31 514.74 37.98 519.93 38.11C569.3 38.11 608.75 38.11 618.62 38.11C621.27 38.1 623.87 38.86 626.11 40.29C628.05 41.29 628.99 43.55 628.32 45.63C627.06 49.5 625.59 53.28 624.18 57.19C599.55 57.19 513.35 57.19 501.03 57.19Z" id="a6kEy4bGk"></path><path d="M157.53 57.06C158.54 53.48 159.87 50 161.49 46.65C164.03 41.57 169.17 38.3 174.86 38.17C184.85 38.17 264.78 38.17 274.77 38.17C277.34 38.13 279.87 38.8 282.09 40.1C284.49 41.13 285.6 43.91 284.58 46.31C284.54 46.41 284.5 46.5 284.45 46.59C283.22 50.06 281.9 53.56 280.64 57.06C256.02 57.06 169.84 57.06 157.53 57.06Z" id="cicdab2Ul"></path><path d="M11.64 56.39C15.61 45.57 17.81 39.55 18.25 38.35C19.02 38.35 19.57 38.2 20.09 38.2C31.03 38.2 118.48 38.2 129.41 38.2C131.9 38.23 134.33 38.99 136.39 40.38C138.49 41.5 139.38 44.03 138.45 46.22C137.31 49.6 135.99 52.95 134.73 56.39C118.32 56.39 77.29 56.39 11.64 56.39Z" id="beqa2mbkP"></path><path d="M24.58 152.37C35.21 123.28 45.75 94.52 56.26 65.82C57.9 65.82 66.09 65.82 80.84 65.82L49.16 152.37C36.05 152.37 27.86 152.37 24.58 152.37Z" id="aYiqJpoZN"></path><path d="M473.75 65.82C473.19 67.42 472.7 68.89 472.18 70.24C459.03 106.25 448.45 135.03 445.82 142.23C443.49 148.1 437.98 152.1 431.69 152.49C427.45 152.49 423.2 152.49 418.96 152.49C418.48 152.45 417.99 152.35 417.52 152.22C428.13 123.3 438.68 94.5 449.17 65.82C463.92 65.82 472.11 65.82 473.75 65.82Z" id="f5AyaYBJ"></path><path d="M579.78 179.38C575.97 189.86 572.16 200.27 568.29 210.84C572.66 210.84 607.64 210.84 612.01 210.84C613.88 205.77 615.76 200.64 617.76 195.2C615.94 195.2 606.84 195.2 590.47 195.2L592.35 189.98C617.53 189.98 631.52 189.98 634.32 189.98C631.24 198.12 628.45 206.02 625.56 213.85C624.12 215.22 622.23 216 620.24 216.06C619.05 216.06 617.85 216.06 616.65 216.06C588.32 216.06 565.63 216.06 559.96 216.06C558.52 216.06 557.09 215.97 555.66 215.79C554.39 215.8 553.19 215.22 552.4 214.22C552.56 213.76 552.68 213.24 552.86 212.72C557.04 201.32 561.31 189.95 565.34 178.49C566.06 175.98 568.29 174.21 570.9 174.06C571.84 173.91 572.8 173.82 573.76 173.82C578.06 173.82 599.57 173.82 638.28 173.82L640 173.82C638.88 176.91 638.25 178.64 638.13 178.98C633.24 179.32 628.36 178.98 623.5 178.98C620.59 178.98 606.01 178.98 579.78 178.98C579.78 179.19 579.78 179.33 579.78 179.38Z" id="fAsu9xRqj"></path><path d="M464.19 216.13C469.35 201.96 474.42 188.1 479.55 174.16C480.2 174.16 480.81 174 481.43 174C484.96 174 488.5 174 492 174C493.36 173.94 494.7 174.33 495.81 175.11C500.54 178.18 505.27 181.25 510.03 184.33C510.16 184.41 510.77 184.82 511.88 185.55L528.47 178.15C533.35 176.01 536.07 174.82 536.61 174.59C537.24 174.24 537.93 174.02 538.64 173.94C543.19 173.94 547.86 173.94 552.65 173.94C551.62 176.74 546.5 190.77 537.29 216L522.66 216C530.04 195.72 534.13 184.46 534.95 182.21C530.34 184.23 526.19 185.89 522.2 187.83C519.22 189.37 515.87 190.08 512.52 189.89C509.45 189.7 506.38 189.89 502.94 189.89C502.15 189.38 498.22 186.83 491.14 182.24L478.66 216.22C470.95 216.17 466.12 216.14 464.19 216.13Z" id="e1ynjIL3IK"></path><path d="M349.53 210.87C357.56 188.93 362.03 176.75 362.92 174.31C368.12 173.23 374.84 173.97 376.96 175.91C376.53 177.14 376.1 178.4 375.64 179.66C371.71 190.38 367.69 201.16 363.91 211.85C363.2 214.12 361.2 215.73 358.84 215.94C357.5 216.16 356.14 216.25 354.78 216.22C349.02 216.22 302.9 216.22 297.14 216.22C295.86 216.22 294.57 216.13 293.3 215.94C291.98 215.92 290.73 215.34 289.86 214.34C294.47 201.75 299.08 189.03 303.75 176.4C304.95 175.14 306.58 174.37 308.32 174.25C311.83 174.25 315.33 174.25 319.17 174.25C314.81 186.41 310.32 198.46 305.81 210.87C311.63 210.87 326.21 210.87 349.53 210.87Z" id="byOrYEKXo"></path><path d="M477 57.06C462.26 57.06 454.06 57.06 452.42 57.06C452.73 56.17 452.95 55.43 453.19 54.7C458.63 39.86 463.95 24.96 469.57 10.18C471.48 4.53 476.61 0.58 482.57 0.19C487.27 -0.24 492 0.19 496.73 0.19C497.08 0.21 497.42 0.29 497.74 0.41C490.8 19.35 483.89 38.24 477 57.06Z" id="b2qKSxD84u"></path><path d="M401.02 189.83L459.4 189.83L457.46 195.08C422.44 195.08 402.98 195.08 399.09 195.08C396.51 202.12 393.92 209.06 391.34 216.09C389.88 216.09 378.15 216.09 376.69 216.09C381.85 202.02 386.95 188.1 392.05 174.12C392.79 174.12 393.4 174.12 394.02 174.12C415.19 174.12 436.32 174.12 457.46 174.12C459.14 174.18 460.8 174.38 462.44 174.74C463.19 175.01 463.9 175.37 464.56 175.81C464.43 176.18 463.37 179.08 463.24 179.44C458.42 179.44 453.53 179.44 448.68 179.44C445.75 179.44 431.13 179.44 404.8 179.44L401.02 189.83Z" id="d1AKL91qhZ"></path><path d="M90.02 216.19C94.88 202.98 99.64 189.95 104.43 176.83C106.56 176.83 123.54 176.83 125.66 176.83C120.93 190.04 116.08 203.1 111.29 216.19C107.03 216.19 92.15 216.19 90.02 216.19Z" id="h4jaegjhAF"></path><path d="M156.7 176.83C151.84 190.07 147.08 203.1 142.32 216.16C140.58 216.16 126.72 216.16 124.99 216.16C129.84 202.88 134.61 189.89 139.37 176.83C142.83 176.83 154.96 176.83 156.7 176.83Z" id="dF0PV7zhp"></path><path d="M169.39 216.19L155.96 216.19L170.4 176.77L183.8 176.77L169.39 216.19Z" id="a5hS6tHkIa"></path><path d="M208.93 176.77C204.17 190.04 199.31 203.13 194.52 216.19C193.37 216.19 184.18 216.19 183.03 216.19C187.88 202.98 192.65 189.92 197.47 176.77C199.76 176.77 207.78 176.77 208.93 176.77Z" id="d3VO0tzG1y"></path><path d="M208.13 216.19L222.54 176.83C228.2 176.83 231.34 176.83 231.97 176.83C227.36 190.01 222.39 203.04 217.59 216.19C216.33 216.19 213.18 216.19 208.13 216.19Z" id="a17Q0x026"></path><path d="M238.76 216.16L231.27 216.16L245.8 176.8L253.17 176.8L238.76 216.16Z" id="a2AYZPTzgp"></path><path d="M266.82 176.77C270.15 176.77 272.01 176.77 272.38 176.77C267.52 190.04 262.73 203.16 257.9 216.31C257.48 216.31 254.09 216.31 253.66 216.31C253.25 216.27 252.84 216.2 252.44 216.09C254.35 210.85 259.15 197.74 266.82 176.77Z" id="afmuoIWuR"></path><path d="M286.02 176.77C288.45 176.77 289.8 176.77 290.07 176.77C285.22 190.01 280.46 203.1 275.66 216.22C275.39 216.22 274.03 216.22 271.58 216.22L286.02 176.77Z" id="a1qgAFOL1C"></path></defs><g><g><use xlink:href="#b2bVDRyOt" opacity="1" fill="#000000" fill-opacity="1"></use><g><use xlink:href="#b2bVDRyOt" opacity="1" fill-opacity="0" stroke="#000000" stroke-width="1" stroke-opacity="0"></use></g></g><g><use xlink:href="#aTDrAaDph" opacity="1" fill="#000000" fill-opacity="1"></use><g><use xlink:href="#aTDrAaDph" opacity="1" fill-opacity="0" stroke="#000000" stroke-width="1" stroke-opacity="0"></use></g></g><g><use xlink:href="#e1eXcNQjz4" opacity="1" fill="#000000" fill-opacity="1"></use><g><use xlink:href="#e1eXcNQjz4" opacity="1" fill-opacity="0" stroke="#000000" stroke-width="1" stroke-opacity="0"></use></g></g><g><use xlink:href="#eeCpw9WvG" opacity="1" fill="#000000" fill-opacity="1"></use><g><use xlink:href="#eeCpw9WvG" opacity="1" fill-opacity="0" stroke="#000000" stroke-width="1" stroke-opacity="0"></use></g></g><g><use xlink:href="#acuw8gU0h" opacity="1" fill="#000000" fill-opacity="1"></use><g><use xlink:href="#acuw8gU0h" opacity="1" fill-opacity="0" stroke="#000000" stroke-width="1" stroke-opacity="0"></use></g></g><g><use xlink:href="#a6kEy4bGk" opacity="1" fill="#000000" fill-opacity="1"></use><g><use xlink:href="#a6kEy4bGk" opacity="1" fill-opacity="0" stroke="#000000" stroke-width="1" stroke-opacity="0"></use></g></g><g><use xlink:href="#cicdab2Ul" opacity="1" fill="#000000" fill-opacity="1"></use><g><use xlink:href="#cicdab2Ul" opacity="1" fill-opacity="0" stroke="#000000" stroke-width="1" stroke-opacity="0"></use></g></g><g><use xlink:href="#beqa2mbkP" opacity="1" fill="#000000" fill-opacity="1"></use><g><use xlink:href="#beqa2mbkP" opacity="1" fill-opacity="0" stroke="#000000" stroke-width="1" stroke-opacity="0"></use></g></g><g><use xlink:href="#aYiqJpoZN" opacity="1" fill="#000000" fill-opacity="1"></use><g><use xlink:href="#aYiqJpoZN" opacity="1" fill-opacity="0" stroke="#000000" stroke-width="1" stroke-opacity="0"></use></g></g><g><use xlink:href="#f5AyaYBJ" opacity="1" fill="#000000" fill-opacity="1"></use><g><use xlink:href="#f5AyaYBJ" opacity="1" fill-opacity="0" stroke="#000000" stroke-width="1" stroke-opacity="0"></use></g></g><g><use xlink:href="#fAsu9xRqj" opacity="1" fill="#000000" fill-opacity="1"></use><g><use xlink:href="#fAsu9xRqj" opacity="1" fill-opacity="0" stroke="#000000" stroke-width="1" stroke-opacity="0"></use></g></g><g><use xlink:href="#e1ynjIL3IK" opacity="1" fill="#000000" fill-opacity="1"></use><g><use xlink:href="#e1ynjIL3IK" opacity="1" fill-opacity="0" stroke="#000000" stroke-width="1" stroke-opacity="0"></use></g></g><g><use xlink:href="#byOrYEKXo" opacity="1" fill="#000000" fill-opacity="1"></use><g><use xlink:href="#byOrYEKXo" opacity="1" fill-opacity="0" stroke="#000000" stroke-width="1" stroke-opacity="0"></use></g></g><g><use xlink:href="#b2qKSxD84u" opacity="1" fill="#000000" fill-opacity="1"></use><g><use xlink:href="#b2qKSxD84u" opacity="1" fill-opacity="0" stroke="#000000" stroke-width="1" stroke-opacity="0"></use></g></g><g><use xlink:href="#d1AKL91qhZ" opacity="1" fill="#000000" fill-opacity="1"></use><g><use xlink:href="#d1AKL91qhZ" opacity="1" fill-opacity="0" stroke="#000000" stroke-width="1" stroke-opacity="0"></use></g></g><g><use xlink:href="#h4jaegjhAF" opacity="1" fill="#000000" fill-opacity="1"></use><g><use xlink:href="#h4jaegjhAF" opacity="1" fill-opacity="0" stroke="#000000" stroke-width="1" stroke-opacity="0"></use></g></g><g><use xlink:href="#dF0PV7zhp" opacity="1" fill="#000000" fill-opacity="1"></use><g><use xlink:href="#dF0PV7zhp" opacity="1" fill-opacity="0" stroke="#000000" stroke-width="1" stroke-opacity="0"></use></g></g><g><use xlink:href="#a5hS6tHkIa" opacity="1" fill="#000000" fill-opacity="1"></use><g><use xlink:href="#a5hS6tHkIa" opacity="1" fill-opacity="0" stroke="#000000" stroke-width="1" stroke-opacity="0"></use></g></g><g><use xlink:href="#d3VO0tzG1y" opacity="1" fill="#000000" fill-opacity="1"></use><g><use xlink:href="#d3VO0tzG1y" opacity="1" fill-opacity="0" stroke="#000000" stroke-width="1" stroke-opacity="0"></use></g></g><g><use xlink:href="#a17Q0x026" opacity="1" fill="#000000" fill-opacity="1"></use><g><use xlink:href="#a17Q0x026" opacity="1" fill-opacity="0" stroke="#000000" stroke-width="1" stroke-opacity="0"></use></g></g><g><use xlink:href="#a2AYZPTzgp" opacity="1" fill="#000000" fill-opacity="1"></use><g><use xlink:href="#a2AYZPTzgp" opacity="1" fill-opacity="0" stroke="#000000" stroke-width="1" stroke-opacity="0"></use></g></g><g><use xlink:href="#afmuoIWuR" opacity="1" fill="#000000" fill-opacity="1"></use><g><use xlink:href="#afmuoIWuR" opacity="1" fill-opacity="0" stroke="#000000" stroke-width="1" stroke-opacity="0"></use></g></g><g><use xlink:href="#a1qgAFOL1C" opacity="1" fill="#000000" fill-opacity="1"></use><g><use xlink:href="#a1qgAFOL1C" opacity="1" fill-opacity="0" stroke="#000000" stroke-width="1" stroke-opacity="0"></use></g></g></g></svg>